<?xml version="1.0" encoding="utf-8"?><svg version="1.1" id="Layer_1" xmlns="http://www.w3.org/2000/svg" xmlns:xlink="http://www.w3.org/1999/xlink" x="0px" y="0px" viewBox="0 0 114.66 122.88" style="enable-background:new 0 0 114.66 122.88" xml:space="preserve"><style type="text/css"><![CDATA[
	.st0{fill-rule:evenodd;clip-rule:evenodd;fill:#A1E367;}
	.st1{fill-rule:evenodd;clip-rule:evenodd;fill:#EC6F59;}
	.st2{fill-rule:evenodd;clip-rule:evenodd;}
	.st3{fill-rule:evenodd;clip-rule:evenodd;fill:#2394E0;}
	.st4{fill-rule:evenodd;clip-rule:evenodd;fill:#FAD15C;}
]]></style><g><path class="st3" d="M50.07,0C65.61,0,79.5,7.08,88.69,18.2c-5.05,2.71-9.11,6.04-12.06,10c-1.45,1.95-2.63,4.04-3.52,6.25 c-1.56-0.06-3.13,0.6-4.17,1.93c-2.17,2.78-4.08,5.95-5.39,9.44c-1.19,3.16-1.91,6.56-1.91,10.14c0,5.94,1.64,12.02,4.64,17.3 c2.84,4.99,6.92,9.28,12.03,12.09c0.09,0.06,0.18,0.11,0.28,0.16c1.21,0.65,2.5,1.2,3.85,1.65c0.32,0.11,0.63,0.21,0.95,0.3 c-3.9,3.48-8.35,6.36-13.2,8.49v10.57c0,2.19-1.79,3.98-3.98,3.98l0,0c-2.19,0-3.98-1.79-3.98-3.98v-7.85 c-2.97,0.74-6.05,1.22-9.21,1.4v17.01c0,2.19-1.79,3.98-3.98,3.98l0,0c-2.19,0-3.98-1.79-3.98-3.98V99.9 c-4.18-0.42-8.21-1.35-12.02-2.73v9.34c0,2.19-1.79,3.98-3.98,3.98l0,0c-2.19,0-3.98-1.79-3.98-3.98V93.47 C10.09,84.81,0,68.62,0,50.07C0,22.42,22.42,0,50.07,0L50.07,0L50.07,0z M29.06,112.88L29.06,112.88c2.19,0,3.98,1.79,3.98,3.98 v2.04c0,2.19-1.79,3.98-3.98,3.98l0,0c-2.19,0-3.98-1.79-3.98-3.98v-2.04C25.08,114.67,26.87,112.88,29.06,112.88L29.06,112.88z"/><path class="st0" d="M9.58,75.94c-2.95-4.48-5.16-9.49-6.45-14.85l8.82,4.25L12,67.97c0,0.97-1.65,3.02-2.17,3.8L9.58,75.94 L9.58,75.94L9.58,75.94z M63.82,5.29c8.53,2.84,15.99,8.05,21.57,14.85c-3.55,2.31-6.49,5-8.77,8.06 c-1.45,1.95-2.63,4.04-3.52,6.25c-1.56-0.06-3.13,0.6-4.17,1.93c-0.63,0.81-1.23,1.64-1.81,2.51l-0.67,0.19l-3.03-3.47L62.84,36 l1.88,4.79h1.22c-0.92,1.59-1.73,3.26-2.4,5.02c-0.51,1.34-0.93,2.73-1.24,4.15c-0.68,0.27-1.33,0.48-1.94,0.62 c0.2,0.82,0.12,1.63,1.09,1.63c0.17,0,0.32,0,0.45-0.01c-0.17,1.22-0.26,2.47-0.26,3.74c0,0.97,0.04,1.95,0.13,2.92 c-1.59,2.4-3.46,4.65-4.57,6.37l0.99,7.08c0.26,1.54-3.19,3.17-4.37,4.9l0.56,2.71l-1.59,0.64c-0.28,2.79-2.98,5.88-6.02,5.88 h-3.26c0-3.82-2.72-9.26-2.72-11.96c0-2.29,1.09-2.6,1.09-5.44c0-2.62-2.72-6.38-2.72-7.07v-4.35H37 c-0.32-1.21-0.13-1.63-1.63-1.63h-0.54c-2.37,0-1.97,1.09-4.35,1.09H28.3c-1.96,0-5.44-6.29-5.44-7.07v-6.52 c0-2.82,2.58-5.88,4.35-7.07v-2.72l2.45-2.49l1.36-0.23c2.92,0,2.57-1.63,4.35-1.63l4.89,0v3.8l5.38,2.3l0.51-2.32 c2.44,0.57,3.07,1.66,6.07,1.66h1.09c2.06,0,2.17-2.74,2.17-4.89l-4.35,0.43l-1.89-4.13l-1.88,0.5c0.34,1.48,0.52,0.86,0.52,2.11 c0,0.73-0.6,0.82-1.09,1.09l-1.88-4.78l-4.05-2.89l-0.54,0.53l3.45,3.63c-0.46,1.3-0.51,5.06-2.41,2.43l1.78-0.86l-4.43-4.64 l-2.66,1.04l-2.62,2.51c-0.27,2.02-0.82,3.04-2.94,3.04c-1.41,0-0.56-0.36-2.72-0.54v-5.44h4.89l-1.59-3.62l-0.59,0.36v-1.09 l7.94-3.66c-0.15-1.14-0.33-0.53-0.33-1.77c0-0.07,0.53-1.08,0.54-1.09l2.05,1.28L40.2,12l-3.17,0.65l-0.59-2.84 c2.51-1.32,8.04-5.98,9.8-5.98l1.63,0c1.72,0,6.32,1.69,7.06,2.72L50.58,6.1l3.24,2.67l0.31-1.14l2.42-0.66l0.03-1.51h1.09v1.63 L63.82,5.29L63.82,5.29L63.82,5.29z"/><path class="st2" d="M91.02,67.25c-0.12,0.36-0.24,0.73-0.37,1.09h-0.4v-1.09H91.02L91.02,67.25L91.02,67.25z"/><path class="st2" d="M92.58,61.08c-0.13,0.69-0.26,1.37-0.42,2.04l-0.25-1.75L92.58,61.08L92.58,61.08L92.58,61.08z"/><path class="st1" d="M76.36,48.25c-1.51-13.57,6.41-23.11,21.27-28.54c-9.1,11.81,7.76,24.6,8.69,36.86 c2.18-3.72,3.42-8.68,3.66-15.31c11.14,17.48,1.9,46.05-22.62,41.95c-2.25-0.37-4.42-1.09-6.4-2.15 c-8.94-4.77-14.28-15.18-14.28-25.11c0-6.33,2.71-11.99,6.21-16.48C73.37,43.86,74.37,47.15,76.36,48.25L76.36,48.25L76.36,48.25z"/><path class="st4" d="M80.6,68.15c-2.48-6.4-2.14-16.75,4.81-20.38c0.05,11.89,11.76,13.4,9.59,26.1c2-2.27,3.01-5.89,3.19-8.75 c3.17,7.27,0.68,13.08-3.84,16.04c-13.76,9-25.61-9.25-17.73-19.25C76.85,64.14,79.59,67.59,80.6,68.15L80.6,68.15L80.6,68.15z"/></g></svg>